<?xml version="1.0" encoding="UTF-8" standalone="no"?>
<svg xmlns:xlink="http://www.w3.org/1999/xlink" height="600.0px" width="800.0px" xmlns="http://www.w3.org/2000/svg">
  <g transform="matrix(1.0, 0.0, 0.0, 1.0, 0.0, 0.0)">
    <use height="604.9" transform="matrix(1.0, 0.0, 0.0, 1.0, -3.1, -3.1)" width="806.1" xlink:href="#shape0"/>
    <use height="82.85" transform="matrix(1.0, 0.0, 0.0, 1.0, 119.65, 201.95)" width="579.75" xlink:href="#text0"/>
  </g>
  <defs>
    <g id="shape0" transform="matrix(1.0, 0.0, 0.0, 1.0, 3.1, 3.1)">
      <path d="M600.85 400.7 Q603.35 405.25 607.35 409.25 618.3 420.2 633.8 420.2 649.3 420.2 660.25 409.25 663.8 405.7 666.2 401.75 663.8 405.7 660.25 409.25 649.3 420.2 633.8 420.2 618.3 420.2 607.35 409.25 603.35 405.25 600.85 400.7 M683.75 389.0 Q683.75 368.25 669.05 353.55 654.4 338.9 633.65 338.9 612.9 338.9 598.2 353.55 583.55 368.25 583.55 389.0 583.55 409.75 598.2 424.4 612.9 439.1 633.65 439.1 654.4 439.1 669.05 424.4 683.75 409.75 683.75 389.0 683.75 409.75 669.05 424.4 654.4 439.1 633.65 439.1 612.9 439.1 598.2 424.4 583.55 409.75 583.55 389.0 583.55 368.25 598.2 353.55 612.9 338.9 633.65 338.9 654.4 338.9 669.05 353.55 683.75 368.25 683.75 389.0 M653.15 379.5 Q656.0 376.7 656.0 372.7 656.0 368.7 653.15 365.85 650.35 363.05 646.35 363.05 642.35 363.05 639.5 365.85 636.7 368.7 636.7 372.7 636.7 376.7 639.5 379.5 642.35 382.35 646.35 382.35 650.35 382.35 653.15 379.5 650.35 382.35 646.35 382.35 642.35 382.35 639.5 379.5 636.7 376.7 636.7 372.7 636.7 368.7 639.5 365.85 642.35 363.05 646.35 363.05 650.35 363.05 653.15 365.85 656.0 368.7 656.0 372.7 656.0 376.7 653.15 379.5 M799.9 598.7 L0.0 598.7 0.0 0.0 799.9 0.0 799.9 598.7 M363.5 402.35 Q366.0 406.9 370.0 410.9 380.95 421.85 396.45 421.85 411.95 421.85 422.9 410.9 426.45 407.35 428.85 403.4 426.45 407.35 422.9 410.9 411.95 421.85 396.45 421.85 380.95 421.85 370.0 410.9 366.0 406.9 363.5 402.35 M138.35 400.1 Q140.85 404.65 144.85 408.65 155.8 419.6 171.3 419.6 186.8 419.6 197.75 408.65 201.3 405.1 203.7 401.15 201.3 405.1 197.75 408.65 186.8 419.6 171.3 419.6 155.8 419.6 144.85 408.65 140.85 404.65 138.35 400.1 M190.65 365.25 Q187.85 362.45 183.85 362.45 179.85 362.45 177.0 365.25 174.2 368.1 174.2 372.1 174.2 376.1 177.0 378.9 179.85 381.75 183.85 381.75 187.85 381.75 190.65 378.9 193.5 376.1 193.5 372.1 193.5 368.1 190.65 365.25 193.5 368.1 193.5 372.1 193.5 376.1 190.65 378.9 187.85 381.75 183.85 381.75 179.85 381.75 177.0 378.9 174.2 376.1 174.2 372.1 174.2 368.1 177.0 365.25 179.85 362.45 183.85 362.45 187.85 362.45 190.65 365.25 M135.7 352.95 Q121.05 367.65 121.05 388.4 121.05 409.15 135.7 423.8 150.4 438.5 171.15 438.5 191.9 438.5 206.55 423.8 221.25 409.15 221.25 388.4 221.25 367.65 206.55 352.95 191.9 338.3 171.15 338.3 150.4 338.3 135.7 352.95 150.4 338.3 171.15 338.3 191.9 338.3 206.55 352.95 221.25 367.65 221.25 388.4 221.25 409.15 206.55 423.8 191.9 438.5 171.15 438.5 150.4 438.5 135.7 423.8 121.05 409.15 121.05 388.4 121.05 367.65 135.7 352.95 M156.45 361.65 Q152.45 361.65 149.6 364.45 146.8 367.3 146.8 371.3 146.8 375.3 149.6 378.1 152.45 380.95 156.45 380.95 160.45 380.95 163.25 378.1 166.1 375.3 166.1 371.3 166.1 367.3 163.25 364.45 160.45 361.65 156.45 361.65 160.45 361.65 163.25 364.45 166.1 367.3 166.1 371.3 166.1 375.3 163.25 378.1 160.45 380.95 156.45 380.95 152.45 380.95 149.6 378.1 146.8 375.3 146.8 371.3 146.8 367.3 149.6 364.45 152.45 361.65 156.45 361.65 M625.75 365.05 Q622.95 362.25 618.95 362.25 614.95 362.25 612.1 365.05 609.3 367.9 609.3 371.9 609.3 375.9 612.1 378.7 614.95 381.55 618.95 381.55 622.95 381.55 625.75 378.7 628.6 375.9 628.6 371.9 628.6 367.9 625.75 365.05 628.6 367.9 628.6 371.9 628.6 375.9 625.75 378.7 622.95 381.55 618.95 381.55 614.95 381.55 612.1 378.7 609.3 375.9 609.3 371.9 609.3 367.9 612.1 365.05 614.95 362.25 618.95 362.25 622.95 362.25 625.75 365.05 M399.35 374.35 Q399.35 378.35 402.15 381.15 405.0 384.0 409.0 384.0 413.0 384.0 415.8 381.15 418.65 378.35 418.65 374.35 418.65 370.35 415.8 367.5 413.0 364.7 409.0 364.7 405.0 364.7 402.15 367.5 399.35 370.35 399.35 374.35 399.35 370.35 402.15 367.5 405.0 364.7 409.0 364.7 413.0 364.7 415.8 367.5 418.65 370.35 418.65 374.35 418.65 378.35 415.8 381.15 413.0 384.0 409.0 384.0 405.0 384.0 402.15 381.15 399.35 378.35 399.35 374.35 M381.6 363.9 Q377.6 363.9 374.75 366.7 371.95 369.55 371.95 373.55 371.95 377.55 374.75 380.35 377.6 383.2 381.6 383.2 385.6 383.2 388.4 380.35 391.25 377.55 391.25 373.55 391.25 369.55 388.4 366.7 385.6 363.9 381.6 363.9 385.6 363.9 388.4 366.7 391.25 369.55 391.25 373.55 391.25 377.55 388.4 380.35 385.6 383.2 381.6 383.2 377.6 383.2 374.75 380.35 371.95 377.55 371.95 373.55 371.95 369.55 374.75 366.7 377.6 363.9 381.6 363.9 M360.85 355.2 Q346.2 369.9 346.2 390.65 346.2 411.4 360.85 426.05 375.55 440.75 396.3 440.75 417.05 440.75 431.7 426.05 446.4 411.4 446.4 390.65 446.4 369.9 431.7 355.2 417.05 340.55 396.3 340.55 375.55 340.55 360.85 355.2 375.55 340.55 396.3 340.55 417.05 340.55 431.7 355.2 446.4 369.9 446.4 390.65 446.4 411.4 431.7 426.05 417.05 440.75 396.3 440.75 375.55 440.75 360.85 426.05 346.2 411.4 346.2 390.65 346.2 369.9 360.85 355.2" fill="#000000" fill-rule="evenodd" stroke="none"/>
      <path d="M653.15 379.5 Q650.35 382.35 646.35 382.35 642.35 382.35 639.5 379.5 636.7 376.7 636.7 372.7 636.7 368.7 639.5 365.85 642.35 363.05 646.35 363.05 650.35 363.05 653.15 365.85 656.0 368.7 656.0 372.7 656.0 376.7 653.15 379.5 M683.75 389.0 Q683.75 409.75 669.05 424.4 654.4 439.1 633.65 439.1 612.9 439.1 598.2 424.4 583.55 409.75 583.55 389.0 583.55 368.25 598.2 353.55 612.9 338.9 633.65 338.9 654.4 338.9 669.05 353.55 683.75 368.25 683.75 389.0 M666.2 401.75 Q663.8 405.7 660.25 409.25 649.3 420.2 633.8 420.2 618.3 420.2 607.35 409.25 603.35 405.25 600.85 400.7 M799.9 598.7 L0.0 598.7 0.0 0.0 799.9 0.0 799.9 598.7 M360.85 355.2 Q375.55 340.55 396.3 340.55 417.05 340.55 431.7 355.2 446.4 369.9 446.4 390.65 446.4 411.4 431.7 426.05 417.05 440.75 396.3 440.75 375.55 440.75 360.85 426.05 346.2 411.4 346.2 390.65 346.2 369.9 360.85 355.2 M381.6 363.9 Q385.6 363.9 388.4 366.7 391.25 369.55 391.25 373.55 391.25 377.55 388.4 380.35 385.6 383.2 381.6 383.2 377.6 383.2 374.75 380.35 371.95 377.55 371.95 373.55 371.95 369.55 374.75 366.7 377.6 363.9 381.6 363.9 M399.35 374.35 Q399.35 370.35 402.15 367.5 405.0 364.7 409.0 364.7 413.0 364.7 415.8 367.5 418.65 370.35 418.65 374.35 418.65 378.35 415.8 381.15 413.0 384.0 409.0 384.0 405.0 384.0 402.15 381.15 399.35 378.35 399.35 374.35 M625.75 365.05 Q628.6 367.9 628.6 371.9 628.6 375.9 625.75 378.7 622.95 381.55 618.95 381.55 614.95 381.55 612.1 378.7 609.3 375.9 609.3 371.9 609.3 367.9 612.1 365.05 614.95 362.25 618.95 362.25 622.95 362.25 625.75 365.05 M156.45 361.65 Q160.45 361.65 163.25 364.45 166.1 367.3 166.1 371.3 166.1 375.3 163.25 378.1 160.45 380.95 156.45 380.95 152.45 380.95 149.6 378.1 146.8 375.3 146.8 371.3 146.8 367.3 149.6 364.45 152.45 361.65 156.45 361.65 M135.7 352.95 Q150.4 338.3 171.15 338.3 191.9 338.3 206.55 352.95 221.25 367.65 221.25 388.4 221.25 409.15 206.55 423.8 191.9 438.5 171.15 438.5 150.4 438.5 135.7 423.8 121.05 409.15 121.05 388.4 121.05 367.65 135.7 352.95 M190.65 365.25 Q193.5 368.1 193.5 372.1 193.5 376.1 190.65 378.9 187.85 381.75 183.85 381.75 179.85 381.75 177.0 378.9 174.2 376.1 174.2 372.1 174.2 368.1 177.0 365.25 179.85 362.45 183.85 362.45 187.85 362.45 190.65 365.25 M203.7 401.15 Q201.3 405.1 197.75 408.65 186.8 419.6 171.3 419.6 155.8 419.6 144.85 408.65 140.85 404.65 138.35 400.1 M428.85 403.4 Q426.45 407.35 422.9 410.9 411.95 421.85 396.45 421.85 380.95 421.85 370.0 410.9 366.0 406.9 363.5 402.35" fill="none" stroke="#ffffff" stroke-linecap="round" stroke-linejoin="round" stroke-width="6.25"/>
    </g>
    <g id="text0" transform="matrix(1.0, 0.0, 0.0, 1.0, -0.55, -17.9)">
      <g transform="matrix(1.0, 0.0, 0.0, 1.0, 0.0, 0.0)">
        <use fill="#ffffff" height="82.85" transform="matrix(1.7773, 0.0, 0.0, 1.7773, 0.0, 81.1)" width="579.75" xlink:href="#font_Times_New_Roman_y0"/>
        <use fill="#ffffff" height="82.85" transform="matrix(1.7773, 0.0, 0.0, 1.7773, 45.5, 81.1)" width="579.75" xlink:href="#font_Times_New_Roman_o0"/>
        <use fill="#ffffff" height="82.85" transform="matrix(1.7773, 0.0, 0.0, 1.7773, 91.0, 81.1)" width="579.75" xlink:href="#font_Times_New_Roman_u0"/>
        <use fill="#ffffff" height="82.85" transform="matrix(1.7773, 0.0, 0.0, 1.7773, 159.25, 81.1)" width="579.75" xlink:href="#font_Times_New_Roman_a0"/>
        <use fill="#ffffff" height="82.85" transform="matrix(1.7773, 0.0, 0.0, 1.7773, 199.65, 81.1)" width="579.75" xlink:href="#font_Times_New_Roman_r0"/>
        <use fill="#ffffff" height="82.85" transform="matrix(1.7773, 0.0, 0.0, 1.7773, 229.95, 81.1)" width="579.75" xlink:href="#font_Times_New_Roman_e0"/>
        <use fill="#ffffff" height="82.85" transform="matrix(1.7773, 0.0, 0.0, 1.7773, 293.1, 81.1)" width="579.75" xlink:href="#font_Times_New_Roman_a0"/>
        <use fill="#ffffff" height="82.85" transform="matrix(1.7773, 0.0, 0.0, 1.7773, 333.5, 81.1)" width="579.75" xlink:href="#font_Times_New_Roman_n0"/>
        <use fill="#ffffff" height="82.85" transform="matrix(1.7773, 0.0, 0.0, 1.7773, 401.75, 81.1)" width="579.75" xlink:href="#font_Times_New_Roman_i0"/>
        <use fill="#ffffff" height="82.85" transform="matrix(1.7773, 0.0, 0.0, 1.7773, 427.05, 81.1)" width="579.75" xlink:href="#font_Times_New_Roman_d0"/>
        <use fill="#ffffff" height="82.85" transform="matrix(1.7773, 0.0, 0.0, 1.7773, 472.55, 81.1)" width="579.75" xlink:href="#font_Times_New_Roman_i0"/>
        <use fill="#ffffff" height="82.85" transform="matrix(1.7773, 0.0, 0.0, 1.7773, 497.85, 81.1)" width="579.75" xlink:href="#font_Times_New_Roman_o0"/>
        <use fill="#ffffff" height="82.85" transform="matrix(1.7773, 0.0, 0.0, 1.7773, 543.35, 81.1)" width="579.75" xlink:href="#font_Times_New_Roman_t0"/>
      </g>
      <g transform="matrix(1.0, 0.0, 0.0, 1.0, 0.0, 0.0)">
        <use fill="#ffffff" height="82.85" transform="matrix(0.2344, 0.0, 0.0, 0.2344, 568.65, 81.1)" width="579.75" xlink:href="#font_Times_New_Roman__1"/>
      </g>
    </g>
    <g id="font_Times_New_Roman_y0">
      <path d="M17.85 -22.9 L25.3 -22.9 25.3 -21.95 Q24.4 -21.85 23.9 -21.55 L22.8 -20.45 21.95 -18.5 12.6 4.35 Q11.25 7.65 9.1 9.35 6.9 11.05 4.85 11.05 3.4 11.05 2.45 10.2 1.5 9.35 1.5 8.25 1.5 7.2 2.2 6.6 2.85 5.95 4.05 5.95 4.9 5.95 6.3 6.5 L7.55 6.85 Q8.3 6.85 9.2 6.1 10.1 5.3 11.0 3.1 L12.6 -0.9 4.4 -18.15 3.2 -20.1 2.15 -21.25 Q1.6 -21.65 0.3 -21.95 L0.3 -22.9 11.0 -22.9 11.0 -21.95 10.45 -21.95 Q9.35 -21.95 8.8 -21.45 8.2 -21.0 8.2 -20.25 8.2 -19.3 9.05 -17.55 L14.6 -6.0 19.75 -18.65 Q20.15 -19.7 20.15 -20.7 L20.0 -21.35 19.35 -21.8 17.85 -21.95 17.85 -22.9" fill-rule="evenodd" stroke="none"/>
    </g>
    <g id="font_Times_New_Roman_o0">
      <path d="M12.05 -21.95 Q10.7 -21.95 9.4 -21.15 8.05 -20.35 7.2 -18.4 6.4 -16.4 6.4 -13.3 6.4 -8.3 8.4 -4.7 10.35 -1.05 13.6 -1.05 16.05 -1.05 17.6 -3.05 19.2 -5.05 19.2 -9.95 19.2 -16.05 16.55 -19.55 14.8 -21.95 12.05 -21.95 M7.4 -22.05 Q9.95 -23.55 12.8 -23.55 18.0 -23.55 21.15 -19.6 23.85 -16.25 23.85 -11.85 23.85 -8.8 22.35 -5.65 20.9 -2.5 18.3 -0.9 15.7 0.7 12.55 0.7 7.35 0.7 4.3 -3.4 1.75 -6.9 1.75 -11.2 1.75 -14.35 3.3 -17.45 4.85 -20.6 7.4 -22.05" fill-rule="evenodd" stroke="none"/>
    </g>
    <g id="font_Times_New_Roman_u0">
      <path d="M13.9 -22.9 L21.7 -22.9 21.7 -9.0 Q21.7 -5.05 21.9 -4.15 22.05 -3.25 22.5 -2.9 22.9 -2.55 23.45 -2.55 L25.2 -3.0 25.55 -2.1 18.7 0.7 17.55 0.7 17.55 -4.15 Q14.6 -0.95 13.05 -0.1 11.5 0.7 9.8 0.7 7.85 0.7 6.45 -0.4 5.05 -1.5 4.5 -3.25 3.95 -5.0 3.95 -8.2 L3.95 -18.45 Q3.95 -20.05 3.6 -20.7 L2.55 -21.65 0.05 -21.95 0.05 -22.9 8.1 -22.9 8.1 -7.55 Q8.1 -4.35 9.2 -3.35 10.3 -2.35 11.9 -2.35 12.95 -2.35 14.35 -3.05 15.7 -3.7 17.55 -5.6 L17.55 -18.6 Q17.55 -20.55 16.85 -21.2 16.15 -21.9 13.9 -21.95 L13.9 -22.9" fill-rule="evenodd" stroke="none"/>
    </g>
    <g id="font_Times_New_Roman_a0">
      <path d="M18.7 -15.7 L18.7 -7.95 Q18.7 -4.65 18.85 -3.9 18.95 -3.2 19.25 -2.95 19.55 -2.7 19.9 -2.7 L20.6 -2.85 22.65 -4.7 22.65 -3.3 Q19.85 0.45 17.3 0.45 16.05 0.45 15.35 -0.4 14.6 -1.25 14.6 -3.3 11.05 -0.55 10.15 -0.15 8.8 0.5 7.3 0.5 4.9 0.5 3.4 -1.15 1.85 -2.75 1.85 -5.4 1.85 -7.1 2.6 -8.3 3.6 -10.0 6.15 -11.5 8.7 -13.0 14.6 -15.15 L14.6 -16.05 Q14.6 -19.5 13.5 -20.75 12.4 -22.05 10.35 -22.05 8.75 -22.05 7.85 -21.2 6.9 -20.35 6.9 -19.25 L6.95 -17.8 Q6.95 -16.65 6.35 -16.0 5.75 -15.4 4.8 -15.4 3.9 -15.4 3.3 -16.05 2.7 -16.7 2.7 -17.8 2.7 -19.95 4.9 -21.75 7.1 -23.55 11.1 -23.55 14.15 -23.55 16.1 -22.55 17.55 -21.75 18.25 -20.1 18.7 -19.05 18.7 -15.7 M9.6 -2.4 Q11.5 -2.4 14.6 -4.9 L14.6 -13.65 Q10.8 -12.15 9.7 -11.5 7.75 -10.4 6.9 -9.2 6.05 -8.0 6.05 -6.6 6.05 -4.8 7.1 -3.6 8.2 -2.4 9.6 -2.4" fill-rule="evenodd" stroke="none"/>
    </g>
    <g id="font_Times_New_Roman_r0">
      <path d="M10.65 -19.7 Q9.5 -18.65 8.3 -16.3 L8.3 -5.35 Q8.3 -3.45 8.8 -2.45 9.1 -1.8 9.95 -1.35 10.75 -0.9 12.3 -0.9 L12.3 0.0 0.6 0.0 0.6 -0.9 Q2.35 -0.9 3.2 -1.45 3.8 -1.85 4.05 -2.7 L4.2 -5.15 4.2 -14.0 4.05 -18.75 3.45 -19.9 Q3.0 -20.25 2.35 -20.25 L0.6 -19.85 0.35 -20.75 7.25 -23.55 8.3 -23.55 8.3 -18.4 Q11.2 -23.55 14.2 -23.55 15.6 -23.55 16.5 -22.7 17.4 -21.9 17.4 -20.8 17.4 -19.8 16.75 -19.15 16.1 -18.45 15.2 -18.45 14.3 -18.45 13.25 -19.3 12.15 -20.2 11.6 -20.2 11.15 -20.2 10.65 -19.7" fill-rule="evenodd" stroke="none"/>
    </g>
    <g id="font_Times_New_Roman_e0">
      <path d="M11.1 -21.8 Q9.0 -21.8 7.4 -20.2 5.75 -18.6 5.45 -15.7 L16.05 -15.7 Q15.95 -17.9 15.55 -18.8 14.9 -20.2 13.7 -21.0 12.45 -21.8 11.1 -21.8 M18.8 -21.05 Q21.3 -18.5 21.3 -14.25 L5.45 -14.25 Q5.45 -9.15 7.95 -6.25 10.45 -3.35 13.8 -3.35 16.05 -3.35 17.75 -4.6 19.4 -5.85 20.5 -8.85 L21.3 -8.35 Q20.75 -4.9 18.25 -2.1 15.7 0.7 11.9 0.7 7.8 0.7 4.85 -2.5 1.9 -5.7 1.9 -11.15 1.9 -17.0 4.95 -20.3 7.95 -23.6 12.5 -23.6 16.35 -23.6 18.8 -21.05" fill-rule="evenodd" stroke="none"/>
    </g>
    <g id="font_Times_New_Roman_n0">
      <path d="M19.2 -22.6 Q20.55 -21.7 21.35 -19.55 21.9 -18.05 21.9 -14.95 L21.9 -5.15 Q21.9 -3.0 22.25 -2.2 22.5 -1.6 23.15 -1.25 23.75 -0.9 25.4 -0.9 L25.4 0.0 14.05 0.0 14.05 -0.9 14.55 -0.9 Q16.15 -0.9 16.8 -1.35 17.4 -1.85 17.65 -2.8 L17.75 -5.15 17.75 -14.55 Q17.75 -17.65 16.95 -19.05 16.15 -20.5 14.2 -20.5 11.25 -20.5 8.3 -17.25 L8.3 -5.15 Q8.3 -2.85 8.55 -2.3 8.9 -1.55 9.55 -1.2 L12.0 -0.9 12.0 0.0 0.7 0.0 0.7 -0.9 1.2 -0.9 Q2.95 -0.9 3.55 -1.75 4.15 -2.65 4.15 -5.15 L4.15 -13.65 4.0 -18.7 Q3.8 -19.6 3.4 -19.9 L2.35 -20.25 0.7 -19.85 0.3 -20.75 7.2 -23.55 8.3 -23.55 8.3 -18.7 Q12.3 -23.55 15.95 -23.55 17.85 -23.55 19.2 -22.6" fill-rule="evenodd" stroke="none"/>
    </g>
    <g id="font_Times_New_Roman_i0">
      <path d="M9.25 -34.8 Q9.95 -34.05 9.95 -33.0 9.95 -31.95 9.25 -31.2 8.5 -30.45 7.45 -30.45 6.4 -30.45 5.65 -31.2 4.9 -31.95 4.9 -33.0 4.9 -34.05 5.65 -34.8 6.35 -35.55 7.45 -35.55 8.5 -35.55 9.25 -34.8 M9.5 -23.55 L9.5 -5.15 Q9.5 -3.0 9.85 -2.3 10.15 -1.6 10.75 -1.25 L13.0 -0.9 13.0 0.0 1.85 0.0 1.85 -0.9 4.1 -1.2 5.05 -2.3 Q5.35 -3.05 5.35 -5.15 L5.35 -14.0 Q5.35 -17.7 5.15 -18.8 L4.6 -19.9 3.55 -20.25 Q2.85 -20.25 1.85 -19.85 L1.5 -20.75 8.4 -23.55 9.5 -23.55" fill-rule="evenodd" stroke="none"/>
    </g>
    <g id="font_Times_New_Roman_d0">
      <path d="M21.9 -35.55 L21.9 -9.05 Q21.9 -5.05 22.1 -4.15 22.3 -3.25 22.7 -2.9 23.1 -2.55 23.65 -2.55 24.35 -2.55 25.45 -3.0 L25.75 -2.1 18.95 0.7 17.8 0.7 17.8 -2.55 Q16.1 -0.8 14.5 -0.05 12.9 0.7 11.05 0.7 7.3 0.7 4.5 -2.4 1.7 -5.55 1.7 -10.5 1.7 -15.4 4.8 -19.5 7.9 -23.6 12.8 -23.6 15.8 -23.6 17.8 -21.65 L17.8 -25.9 Q17.8 -29.8 17.6 -30.7 17.4 -31.6 17.0 -31.95 L16.0 -32.25 14.3 -31.85 13.95 -32.75 20.8 -35.55 21.9 -35.55 M16.9 -19.2 Q16.15 -20.6 14.9 -21.3 13.65 -22.05 12.5 -22.05 10.3 -22.05 8.55 -20.05 6.3 -17.45 6.3 -12.45 6.3 -7.4 8.5 -4.7 10.7 -2.05 13.4 -2.05 15.65 -2.05 17.8 -4.3 L17.8 -16.1 Q17.65 -17.8 16.9 -19.2" fill-rule="evenodd" stroke="none"/>
    </g>
    <g id="font_Times_New_Roman_t0">
      <path d="M8.25 -30.4 L8.25 -22.9 13.6 -22.9 13.6 -21.15 8.25 -21.15 8.25 -6.3 Q8.25 -4.05 8.9 -3.3 9.55 -2.5 10.55 -2.5 11.35 -2.5 12.15 -3.0 12.9 -3.55 13.35 -4.55 L14.3 -4.55 Q13.45 -2.1 11.85 -0.85 10.25 0.4 8.55 0.4 7.4 0.4 6.3 -0.25 5.2 -0.9 4.65 -2.05 4.15 -3.25 4.15 -5.75 L4.15 -21.15 0.5 -21.15 0.5 -21.95 Q1.9 -22.5 3.35 -23.8 4.75 -25.15 5.9 -26.95 L7.5 -30.4 8.25 -30.4" fill-rule="evenodd" stroke="none"/>
    </g>
    <g id="font_Times_New_Roman__1">
      <path d="M5.7 -31.2 Q5.7 -32.75 6.55 -33.7 7.4 -34.65 8.55 -34.65 9.75 -34.65 10.55 -33.7 11.35 -32.75 11.35 -30.9 L11.25 -29.2 9.0 -8.95 8.05 -8.95 5.85 -29.2 5.7 -31.2 M8.5 -4.8 Q9.65 -4.8 10.5 -4.0 11.3 -3.2 11.3 -2.05 11.3 -0.9 10.5 -0.1 9.65 0.7 8.5 0.7 7.35 0.7 6.55 -0.1 5.75 -0.9 5.75 -2.05 5.75 -3.2 6.55 -4.0 7.35 -4.8 8.5 -4.8" fill-rule="evenodd" stroke="none"/>
    </g>
  </defs>
</svg>
